<?xml version="1.0" encoding="utf-8"?>
<!-- Generator: Adobe Illustrator 24.2.1, SVG Export Plug-In . SVG Version: 6.00 Build 0)  -->
<svg version="1.1" id="Camada_1" xmlns="http://www.w3.org/2000/svg" xmlns:xlink="http://www.w3.org/1999/xlink" x="0px" y="0px"
	 viewBox="0 0 565 1120" style="enable-background:new 0 0 565 1120;" xml:space="preserve">
<style type="text/css">
	.st0{fill:none;stroke:#04D361;stroke-width:3;stroke-linecap:round;stroke-linejoin:round;stroke-miterlimit:10;}
	.st1{fill:#9871F5;}
</style>
<path class="st0" d="M382,1020.2c-5.6,0-10.2-4.6-10.2-10.2c0-5.6,4.6-10.2,10.2-10.2c5.6,0,10.2,4.6,10.2,10.2
	C392.2,1015.6,387.6,1020.2,382,1020.2z"/>
<path class="st0" d="M374.9,1017.4l-7.2,7.2"/>
<path class="st0" d="M412.1,276.3L401.3,287"/>
<path class="st0" d="M412.1,287l-10.7-10.7"/>
<path class="st0" d="M158.6,891.6l-10.7,10.7"/>
<path class="st0" d="M158.6,902.3l-10.7-10.7"/>
<path class="st0" d="M64.1,305.1H48.9"/>
<path class="st0" d="M56.5,312.7v-15.2"/>
<path class="st0" d="M315,100.1c-5.1,0-9.2-4.1-9.2-9.2c0-5.1,4.1-9.2,9.2-9.2c5.1,0,9.2,4.1,9.2,9.2
	C324.2,96,320.1,100.1,315,100.1z"/>
<path class="st0" d="M554.2,643c-5.1,0-9.2-4.1-9.2-9.2c0-5.1,4.1-9.2,9.2-9.2c5.1,0,9.2,4.1,9.2,9.2
	C563.4,638.9,559.3,643,554.2,643z"/>
<path class="st0" d="M11.6,778.4c-5.1,0-9.2-4.1-9.2-9.2c0-5.1,4.1-9.2,9.2-9.2c5.1,0,9.2,4.1,9.2,9.2
	C20.9,774.3,16.7,778.4,11.6,778.4z"/>
<path class="st1" d="M187.5,3.6c0,1.8,1.5,3.3,3.3,3.3c1.8,0,3.3-1.5,3.3-3.3s-1.5-3.3-3.3-3.3C189,0.2,187.5,1.7,187.5,3.6z"/>
<path class="st1" d="M187.5,26.9c0,1.8,1.5,3.3,3.3,3.3c1.8,0,3.3-1.5,3.3-3.3c0-1.8-1.5-3.3-3.3-3.3
	C189,23.6,187.5,25.1,187.5,26.9z"/>
<path class="st1" d="M187.5,50.2c0,1.8,1.5,3.3,3.3,3.3c1.8,0,3.3-1.5,3.3-3.3s-1.5-3.3-3.3-3.3C189,46.9,187.5,48.4,187.5,50.2z"/>
<path class="st1" d="M187.5,73.6c0,1.8,1.5,3.3,3.3,3.3c1.8,0,3.3-1.5,3.3-3.3c0-1.8-1.5-3.3-3.3-3.3
	C189,70.2,187.5,71.7,187.5,73.6z"/>
<path class="st1" d="M187.5,96.9c0,1.8,1.5,3.3,3.3,3.3c1.8,0,3.3-1.5,3.3-3.3c0-1.8-1.5-3.3-3.3-3.3C189,93.5,187.5,95,187.5,96.9z
	"/>
<path class="st1" d="M187.5,120.2c0,1.8,1.5,3.3,3.3,3.3c1.8,0,3.3-1.5,3.3-3.3c0-1.8-1.5-3.3-3.3-3.3
	C189,116.9,187.5,118.4,187.5,120.2z"/>
<path class="st1" d="M164.2,3.6c0,1.8,1.5,3.3,3.3,3.3c1.8,0,3.3-1.5,3.3-3.3s-1.5-3.3-3.3-3.3C165.7,0.2,164.2,1.7,164.2,3.6z"/>
<path class="st1" d="M164.2,26.9c0,1.8,1.5,3.3,3.3,3.3c1.8,0,3.3-1.5,3.3-3.3c0-1.8-1.5-3.3-3.3-3.3
	C165.7,23.6,164.2,25.1,164.2,26.9z"/>
<path class="st1" d="M164.2,50.2c0,1.8,1.5,3.3,3.3,3.3c1.8,0,3.3-1.5,3.3-3.3s-1.5-3.3-3.3-3.3C165.7,46.9,164.2,48.4,164.2,50.2z"
	/>
<path class="st1" d="M164.2,73.6c0,1.8,1.5,3.3,3.3,3.3c1.8,0,3.3-1.5,3.3-3.3c0-1.8-1.5-3.3-3.3-3.3
	C165.7,70.2,164.2,71.7,164.2,73.6z"/>
<path class="st1" d="M164.2,96.9c0,1.8,1.5,3.3,3.3,3.3c1.8,0,3.3-1.5,3.3-3.3c0-1.8-1.5-3.3-3.3-3.3
	C165.7,93.5,164.2,95,164.2,96.9z"/>
<path class="st1" d="M164.2,120.2c0,1.8,1.5,3.3,3.3,3.3c1.8,0,3.3-1.5,3.3-3.3c0-1.8-1.5-3.3-3.3-3.3
	C165.7,116.9,164.2,118.4,164.2,120.2z"/>
<path class="st1" d="M140.8,3.6c0,1.8,1.5,3.3,3.3,3.3s3.3-1.5,3.3-3.3s-1.5-3.3-3.3-3.3S140.8,1.7,140.8,3.6z"/>
<path class="st1" d="M140.8,26.9c0,1.8,1.5,3.3,3.3,3.3s3.3-1.5,3.3-3.3c0-1.8-1.5-3.3-3.3-3.3S140.8,25.1,140.8,26.9z"/>
<path class="st1" d="M140.8,50.2c0,1.8,1.5,3.3,3.3,3.3s3.3-1.5,3.3-3.3s-1.5-3.3-3.3-3.3S140.8,48.4,140.8,50.2z"/>
<path class="st1" d="M140.8,73.6c0,1.8,1.5,3.3,3.3,3.3s3.3-1.5,3.3-3.3c0-1.8-1.5-3.3-3.3-3.3S140.8,71.7,140.8,73.6z"/>
<path class="st1" d="M140.8,96.9c0,1.8,1.5,3.3,3.3,3.3s3.3-1.5,3.3-3.3c0-1.8-1.5-3.3-3.3-3.3S140.8,95,140.8,96.9z"/>
<path class="st1" d="M140.8,120.2c0,1.8,1.5,3.3,3.3,3.3s3.3-1.5,3.3-3.3c0-1.8-1.5-3.3-3.3-3.3S140.8,118.4,140.8,120.2z"/>
<path class="st1" d="M117.5,3.6c0,1.8,1.5,3.3,3.3,3.3s3.3-1.5,3.3-3.3s-1.5-3.3-3.3-3.3S117.5,1.7,117.5,3.6z"/>
<path class="st1" d="M117.5,26.9c0,1.8,1.5,3.3,3.3,3.3s3.3-1.5,3.3-3.3c0-1.8-1.5-3.3-3.3-3.3S117.5,25.1,117.5,26.9z"/>
<path class="st1" d="M117.5,50.2c0,1.8,1.5,3.3,3.3,3.3s3.3-1.5,3.3-3.3s-1.5-3.3-3.3-3.3S117.5,48.4,117.5,50.2z"/>
<path class="st1" d="M117.5,73.6c0,1.8,1.5,3.3,3.3,3.3s3.3-1.5,3.3-3.3c0-1.8-1.5-3.3-3.3-3.3S117.5,71.7,117.5,73.6z"/>
<path class="st1" d="M117.5,96.9c0,1.8,1.5,3.3,3.3,3.3s3.3-1.5,3.3-3.3c0-1.8-1.5-3.3-3.3-3.3S117.5,95,117.5,96.9z"/>
<path class="st1" d="M117.5,120.2c0,1.8,1.5,3.3,3.3,3.3s3.3-1.5,3.3-3.3c0-1.8-1.5-3.3-3.3-3.3S117.5,118.4,117.5,120.2z"/>
<path class="st1" d="M420.6,773.4c0,1.8,1.5,3.3,3.3,3.3c1.8,0,3.3-1.5,3.3-3.3c0-1.8-1.5-3.3-3.3-3.3
	C422.1,770.1,420.6,771.5,420.6,773.4z"/>
<path class="st1" d="M420.6,796.7c0,1.8,1.5,3.3,3.3,3.3c1.8,0,3.3-1.5,3.3-3.3c0-1.8-1.5-3.3-3.3-3.3
	C422.1,793.4,420.6,794.9,420.6,796.7z"/>
<path class="st1" d="M420.6,820.1c0,1.8,1.5,3.3,3.3,3.3c1.8,0,3.3-1.5,3.3-3.3c0-1.8-1.5-3.3-3.3-3.3
	C422.1,816.7,420.6,818.2,420.6,820.1z"/>
<path class="st1" d="M397.2,773.4c0,1.8,1.5,3.3,3.3,3.3c1.8,0,3.3-1.5,3.3-3.3c0-1.8-1.5-3.3-3.3-3.3
	C398.7,770.1,397.2,771.5,397.2,773.4z"/>
<path class="st1" d="M397.2,796.7c0,1.8,1.5,3.3,3.3,3.3c1.8,0,3.3-1.5,3.3-3.3c0-1.8-1.5-3.3-3.3-3.3
	C398.7,793.4,397.2,794.9,397.2,796.7z"/>
<path class="st1" d="M397.2,820.1c0,1.8,1.5,3.3,3.3,3.3c1.8,0,3.3-1.5,3.3-3.3c0-1.8-1.5-3.3-3.3-3.3
	C398.7,816.7,397.2,818.2,397.2,820.1z"/>
<path class="st1" d="M542.8,261.1c0,1.8,1.5,3.3,3.3,3.3c1.8,0,3.3-1.5,3.3-3.3c0-1.8-1.5-3.3-3.3-3.3
	C544.3,257.8,542.8,259.3,542.8,261.1z"/>
<path class="st1" d="M542.8,284.4c0,1.8,1.5,3.3,3.3,3.3c1.8,0,3.3-1.5,3.3-3.3s-1.5-3.3-3.3-3.3
	C544.3,281.1,542.8,282.6,542.8,284.4z"/>
<path class="st1" d="M542.8,307.8c0,1.8,1.5,3.3,3.3,3.3c1.8,0,3.3-1.5,3.3-3.3c0-1.8-1.5-3.3-3.3-3.3
	C544.3,304.4,542.8,305.9,542.8,307.8z"/>
<path class="st1" d="M519.4,261.1c0,1.8,1.5,3.3,3.3,3.3s3.3-1.5,3.3-3.3c0-1.8-1.5-3.3-3.3-3.3S519.4,259.3,519.4,261.1z"/>
<path class="st1" d="M519.4,284.4c0,1.8,1.5,3.3,3.3,3.3s3.3-1.5,3.3-3.3s-1.5-3.3-3.3-3.3S519.4,282.6,519.4,284.4z"/>
<path class="st1" d="M519.4,307.8c0,1.8,1.5,3.3,3.3,3.3s3.3-1.5,3.3-3.3c0-1.8-1.5-3.3-3.3-3.3S519.4,305.9,519.4,307.8z"/>
<path class="st1" d="M187.5,1116.1c0,1.8,1.5,3.3,3.3,3.3c1.8,0,3.3-1.5,3.3-3.3c0-1.8-1.5-3.3-3.3-3.3
	C189,1112.7,187.5,1114.2,187.5,1116.1z"/>
<path class="st1" d="M164.2,1116.1c0,1.8,1.5,3.3,3.3,3.3c1.8,0,3.3-1.5,3.3-3.3c0-1.8-1.5-3.3-3.3-3.3
	C165.7,1112.7,164.2,1114.2,164.2,1116.1z"/>
<path class="st1" d="M140.8,1116.1c0,1.8,1.5,3.3,3.3,3.3s3.3-1.5,3.3-3.3c0-1.8-1.5-3.3-3.3-3.3S140.8,1114.2,140.8,1116.1z"/>
<path class="st1" d="M117.4,1116.1c0,1.8,1.5,3.3,3.3,3.3s3.3-1.5,3.3-3.3c0-1.8-1.5-3.3-3.3-3.3S117.4,1114.2,117.4,1116.1z"/>
<path class="st1" d="M94.1,1116.1c0,1.8,1.5,3.3,3.3,3.3c1.8,0,3.3-1.5,3.3-3.3c0-1.8-1.5-3.3-3.3-3.3
	C95.6,1112.7,94.1,1114.2,94.1,1116.1z"/>
<path class="st1" d="M70.7,1116.1c0,1.8,1.5,3.3,3.3,3.3s3.3-1.5,3.3-3.3c0-1.8-1.5-3.3-3.3-3.3S70.7,1114.2,70.7,1116.1z"/>
<path class="st1" d="M47.4,1116.1c0,1.8,1.5,3.3,3.3,3.3c1.8,0,3.3-1.5,3.3-3.3c0-1.8-1.5-3.3-3.3-3.3
	C48.9,1112.7,47.4,1114.2,47.4,1116.1z"/>
<path class="st1" d="M187.5,1092.7c0,1.9,1.5,3.3,3.3,3.3c1.8,0,3.3-1.5,3.3-3.3c0-1.8-1.5-3.3-3.3-3.3
	C189,1089.4,187.5,1090.9,187.5,1092.7z"/>
<path class="st1" d="M164.2,1092.7c0,1.9,1.5,3.3,3.3,3.3c1.8,0,3.3-1.5,3.3-3.3c0-1.8-1.5-3.3-3.3-3.3
	C165.7,1089.4,164.2,1090.9,164.2,1092.7z"/>
<path class="st1" d="M140.8,1092.7c0,1.9,1.5,3.3,3.3,3.3s3.3-1.5,3.3-3.3c0-1.8-1.5-3.3-3.3-3.3S140.8,1090.9,140.8,1092.7z"/>
<path class="st1" d="M117.4,1092.7c0,1.9,1.5,3.3,3.3,3.3s3.3-1.5,3.3-3.3c0-1.8-1.5-3.3-3.3-3.3S117.4,1090.9,117.4,1092.7z"/>
<path class="st1" d="M94.1,1092.7c0,1.9,1.5,3.3,3.3,3.3c1.8,0,3.3-1.5,3.3-3.3c0-1.8-1.5-3.3-3.3-3.3
	C95.6,1089.4,94.1,1090.9,94.1,1092.7z"/>
<path class="st1" d="M70.7,1092.7c0,1.9,1.5,3.3,3.3,3.3s3.3-1.5,3.3-3.3c0-1.8-1.5-3.3-3.3-3.3S70.7,1090.9,70.7,1092.7z"/>
<path class="st1" d="M47.4,1092.7c0,1.9,1.5,3.3,3.3,3.3c1.8,0,3.3-1.5,3.3-3.3c0-1.8-1.5-3.3-3.3-3.3
	C48.9,1089.4,47.4,1090.9,47.4,1092.7z"/>
<path class="st1" d="M187.5,1069.4c0,1.8,1.5,3.3,3.3,3.3c1.8,0,3.3-1.5,3.3-3.3c0-1.8-1.5-3.3-3.3-3.3
	C189,1066.1,187.5,1067.6,187.5,1069.4z"/>
<path class="st1" d="M164.2,1069.4c0,1.8,1.5,3.3,3.3,3.3c1.8,0,3.3-1.5,3.3-3.3c0-1.8-1.5-3.3-3.3-3.3
	C165.7,1066.1,164.2,1067.6,164.2,1069.4z"/>
<path class="st1" d="M140.8,1069.4c0,1.8,1.5,3.3,3.3,3.3s3.3-1.5,3.3-3.3c0-1.8-1.5-3.3-3.3-3.3S140.8,1067.6,140.8,1069.4z"/>
<path class="st1" d="M117.4,1069.4c0,1.8,1.5,3.3,3.3,3.3s3.3-1.5,3.3-3.3c0-1.8-1.5-3.3-3.3-3.3S117.4,1067.6,117.4,1069.4z"/>
<path class="st1" d="M94.1,1069.4c0,1.8,1.5,3.3,3.3,3.3c1.8,0,3.3-1.5,3.3-3.3c0-1.8-1.5-3.3-3.3-3.3
	C95.6,1066.1,94.1,1067.6,94.1,1069.4z"/>
<path class="st1" d="M70.7,1069.4c0,1.8,1.5,3.3,3.3,3.3s3.3-1.5,3.3-3.3c0-1.8-1.5-3.3-3.3-3.3S70.7,1067.6,70.7,1069.4z"/>
<path class="st1" d="M47.4,1069.4c0,1.8,1.5,3.3,3.3,3.3c1.8,0,3.3-1.5,3.3-3.3c0-1.8-1.5-3.3-3.3-3.3
	C48.9,1066.1,47.4,1067.6,47.4,1069.4z"/>
<path class="st1" d="M187.5,1046.1c0,1.8,1.5,3.3,3.3,3.3c1.8,0,3.3-1.5,3.3-3.3c0-1.8-1.5-3.3-3.3-3.3
	C189,1042.7,187.5,1044.2,187.5,1046.1z"/>
<path class="st1" d="M164.2,1046.1c0,1.8,1.5,3.3,3.3,3.3c1.8,0,3.3-1.5,3.3-3.3s-1.5-3.3-3.3-3.3
	C165.7,1042.7,164.2,1044.2,164.2,1046.1z"/>
<path class="st1" d="M140.8,1046.1c0,1.8,1.5,3.3,3.3,3.3s3.3-1.5,3.3-3.3s-1.5-3.3-3.3-3.3S140.8,1044.2,140.8,1046.1z"/>
<path class="st1" d="M117.4,1046.1c0,1.8,1.5,3.3,3.3,3.3s3.3-1.5,3.3-3.3s-1.5-3.3-3.3-3.3S117.4,1044.2,117.4,1046.1z"/>
<path class="st1" d="M94.1,1046.1c0,1.8,1.5,3.3,3.3,3.3c1.8,0,3.3-1.5,3.3-3.3s-1.5-3.3-3.3-3.3
	C95.6,1042.7,94.1,1044.2,94.1,1046.1z"/>
<path class="st1" d="M70.7,1046.1c0,1.8,1.5,3.3,3.3,3.3s3.3-1.5,3.3-3.3s-1.5-3.3-3.3-3.3S70.7,1044.2,70.7,1046.1z"/>
<path class="st1" d="M47.4,1046.1c0,1.8,1.5,3.3,3.3,3.3c1.8,0,3.3-1.5,3.3-3.3s-1.5-3.3-3.3-3.3
	C48.9,1042.7,47.4,1044.2,47.4,1046.1z"/>
</svg>
